<?xml version="1.0" encoding="utf-8"?>
<!-- Generator: Adobe Illustrator 24.2.0, SVG Export Plug-In . SVG Version: 6.00 Build 0)  -->
<svg version="1.1" id="Layer_1" xmlns="http://www.w3.org/2000/svg" xmlns:xlink="http://www.w3.org/1999/xlink" x="0px" y="0px"
	 viewBox="0 0 316 59.5" style="enable-background:new 0 0 316 59.5;" xml:space="preserve">
<style type="text/css">
	.st0{fill:#009C97;}
	.st1{fill:#496E77;}
	.st2{fill:#9DCC90;}
	.st3{fill:#EFED9B;}
</style>
<g>
	<polygon class="st0" points="54,39.6 54,33 48.1,29.7 42.1,33 42.1,39.6 48.1,42.9 	"/>
	<polygon class="st1" points="65.3,37.9 65.3,32.9 60.7,30.4 56.2,32.9 56.2,37.9 60.7,40.4 	"/>
	<polygon class="st1" points="72.5,28 72.5,21.6 66.7,18.3 60.9,21.6 60.9,28 66.7,31.2 	"/>
	<polygon class="st1" points="68.1,15.4 68.1,11.4 64.5,9.4 60.9,11.4 60.9,15.4 64.5,17.4 	"/>
	<polygon class="st2" points="32.9,11.6 32.9,3.9 25.9,0 18.9,3.9 18.9,11.6 25.9,15.5 	"/>
	<path class="st3" d="M16.5,15.7v-5c0-0.1,0-0.1-0.1-0.1l-4.5-2.5c0,0-0.1,0-0.2,0l-4.5,2.5c0,0-0.1,0.1-0.1,0.1v5
		c0,0.1,0,0.1,0.1,0.1l4.5,2.5c0,0,0.1,0,0.2,0l4.5-2.5C16.4,15.8,16.5,15.8,16.5,15.7"/>
	<path class="st3" d="M11.8,30.2v-6.3c0-0.1,0-0.1-0.1-0.2L6,20.6c-0.1,0-0.1,0-0.2,0l-5.7,3.2C0,23.8,0,23.8,0,23.9v6.3
		c0,0.1,0,0.1,0.1,0.2l5.7,3.2c0.1,0,0.1,0,0.2,0l5.7-3.2C11.7,30.4,11.8,30.3,11.8,30.2"/>
	<path class="st3" d="M11.8,42.6v-5c0-0.1,0-0.1-0.1-0.1l-4.5-2.5c0,0-0.1,0-0.2,0l-4.5,2.5c0,0-0.1,0.1-0.1,0.1v5
		c0,0.1,0,0.1,0.1,0.1l4.5,2.5c0,0,0.1,0,0.2,0l4.5-2.5C11.8,42.7,11.8,42.7,11.8,42.6"/>
	<path class="st3" d="M21.2,57.5v-3.8c0,0,0-0.1-0.1-0.1l-3.5-1.9c0,0-0.1,0-0.1,0l-3.5,1.9c0,0-0.1,0.1-0.1,0.1v3.8
		c0,0,0,0.1,0.1,0.1l3.5,1.9c0,0,0.1,0,0.1,0l3.5-1.9C21.2,57.5,21.2,57.5,21.2,57.5"/>
	<path class="st3" d="M18.8,48.7v-3.8c0,0,0-0.1-0.1-0.1l-3.4-1.9c0,0-0.1,0-0.1,0l-3.4,1.9c0,0-0.1,0.1-0.1,0.1v3.8
		c0,0,0,0.1,0.1,0.1l3.4,1.9c0,0,0.1,0,0.1,0l3.4-1.9C18.8,48.8,18.8,48.8,18.8,48.7"/>
	<path class="st2" d="M30.6,49.5v-5c0-0.1,0-0.1-0.1-0.1L26,41.8c0,0-0.1,0-0.2,0l-4.5,2.5c0,0-0.1,0.1-0.1,0.1v5
		c0,0.1,0,0.1,0.1,0.1l4.5,2.5c0,0,0.1,0,0.2,0l4.5-2.5C30.6,49.6,30.6,49.5,30.6,49.5"/>
	<path class="st2" d="M39.9,39.2v-7.5c0-0.1,0-0.2-0.1-0.2L33,27.7c-0.1,0-0.2,0-0.2,0L26,31.5c-0.1,0-0.1,0.1-0.1,0.2v7.5
		c0,0.1,0,0.2,0.1,0.2l6.7,3.7c0.1,0,0.2,0,0.2,0l6.7-3.7C39.8,39.3,39.9,39.2,39.9,39.2"/>
	<path class="st2" d="M28.1,26.7v-7.4c0-0.1,0-0.2-0.1-0.2l-6.6-3.7c-0.1,0-0.2,0-0.2,0l-6.6,3.7c-0.1,0-0.1,0.1-0.1,0.2v7.4
		c0,0.1,0,0.2,0.1,0.2l6.6,3.7c0.1,0,0.2,0,0.2,0l6.6-3.7C28.1,26.9,28.1,26.8,28.1,26.7"/>
	<path class="st0" d="M46.9,23.9v-8.7c0-0.1-0.1-0.2-0.1-0.2l-7.9-4.4c-0.1,0-0.2,0-0.3,0l-7.9,4.4c-0.1,0-0.1,0.1-0.1,0.2v8.7
		c0,0.1,0.1,0.2,0.1,0.2l7.9,4.4c0.1,0,0.2,0,0.3,0l7.9-4.4C46.9,24,46.9,24,46.9,23.9"/>
	<path class="st0" d="M58.5,26v-5c0-0.1,0-0.1-0.1-0.1l-4.5-2.5c0,0-0.1,0-0.2,0l-4.5,2.5c0,0-0.1,0.1-0.1,0.1v5
		c0,0.1,0,0.1,0.1,0.1l4.5,2.5c0,0,0.1,0,0.2,0l4.5-2.5C58.5,26.1,58.5,26,58.5,26"/>
	<path class="st0" d="M58.5,14.3V9.4c0-0.1,0-0.1-0.1-0.1L54,6.8c0,0-0.1,0-0.2,0l-4.4,2.5c0,0-0.1,0.1-0.1,0.1v4.9
		c0,0.1,0,0.1,0.1,0.1l4.4,2.5c0,0,0.1,0,0.2,0l4.4-2.5C58.5,14.4,58.5,14.4,58.5,14.3"/>
	<path class="st0" d="M46.9,7.6v-5c0-0.1,0-0.1-0.1-0.1L42.3,0c-0.1,0-0.1,0-0.2,0l-4.5,2.5c0,0-0.1,0.1-0.1,0.1v5
		c0,0.1,0,0.1,0.1,0.1l4.5,2.5c0,0,0.1,0,0.2,0l4.5-2.5C46.9,7.7,46.9,7.7,46.9,7.6"/>
	<path class="st2" d="M23.5,39.5v-5c0-0.1,0-0.1-0.1-0.1l-4.5-2.5c0,0-0.1,0-0.2,0l-4.5,2.5c0,0-0.1,0.1-0.1,0.1v5
		c0,0.1,0,0.1,0.1,0.1l4.5,2.5c0,0,0.1,0,0.2,0l4.5-2.5C23.5,39.6,23.5,39.5,23.5,39.5"/>
	<polygon class="st2" points="86.4,20.5 90,20.5 94.3,32.2 99.2,20.5 102.6,20.5 102.6,34.4 99.8,34.4 99.8,27.4 99.9,24.5 
		95.9,34.4 92.6,34.4 89,24.4 89.2,27.4 89.2,34.4 86.4,34.4 	"/>
	<polygon class="st2" points="110.5,20.5 119.5,20.5 119.5,22.6 113.3,22.6 113.3,26.4 119,26.4 119,28.4 113.3,28.4 113.3,32.3 
		119.9,32.3 119.9,34.4 110.5,34.4 	"/>
	<polygon class="st2" points="129.9,22.6 125.2,22.6 125.2,20.5 137.4,20.5 137.4,22.6 132.7,22.6 132.7,34.4 129.9,34.4 	"/>
	<rect x="143.5" y="20.5" class="st2" width="2.8" height="13.9"/>
	<path class="st2" d="M153.1,33.7l0.8-2c1.2,0.5,2.2,0.7,3.7,0.7c1.7,0,2.9-0.5,2.9-1.7c0-2.7-7-2-7-6.7c0-2.5,2.4-3.7,4.9-3.7
		c2.1,0,3.1,0.4,4.2,0.8l-0.8,1.9c-1-0.3-1.9-0.6-3.3-0.6c-1.5,0-2.2,0.6-2.2,1.4c0,2.3,7.1,2.2,7.1,6.6c0,2.9-2.8,4.1-5.7,4.1
		C155.3,34.6,154,34.2,153.1,33.7"/>
	<path class="st2" d="M192.8,20.4h3.6l5,13.9h-2.9l-1.6-4.5h-5.2l-1.8,4.5h-2.8L192.8,20.4z M196.3,27.8l-1.8-5.7l-2,5.7H196.3z"/>
	<path class="st2" d="M206.2,27.5c0-4.7,2.7-7.3,7.8-7.3c2.3,0,3.6,0.5,4.4,0.8l-0.7,2c-1.1-0.3-1.8-0.5-3.6-0.6
		c-2.8,0-4.9,1.5-4.9,4.8c0,3.4,2.3,5,5.3,5c1.4,0,2.4-0.2,3.4-0.5l0.6,2.1c-1.1,0.4-2.3,0.7-4.4,0.7
		C208.9,34.6,206.2,31.9,206.2,27.5"/>
	<path class="st2" d="M229,20.4h3.6l5,13.9h-2.9l-1.6-4.5H228l-1.8,4.5h-2.8L229,20.4z M232.5,27.8l-1.8-5.7l-2,5.7H232.5z"/>
	<path class="st2" d="M243.9,20.4h4.7c4.9,0,8.3,2.2,8.3,6.9c0,4.9-3.1,7-8.2,7h-4.8V20.4z M249,32.2c3.5,0,5.2-1.6,5.2-4.7
		c0-3.4-1.9-5-5.6-5h-1.9v9.7H249z"/>
	<polygon class="st2" points="263.9,20.4 272.9,20.4 272.9,22.5 266.7,22.5 266.7,26.3 272.5,26.3 272.5,28.4 266.7,28.4 
		266.7,32.2 273.4,32.2 273.4,34.4 263.9,34.4 	"/>
	<polygon class="st2" points="280.4,20.4 283.9,20.4 288.3,32.1 293.2,20.4 296.6,20.4 296.6,34.4 293.8,34.4 293.8,27.4 
		293.9,24.5 289.9,34.4 286.5,34.4 283,24.4 283.2,27.4 283.2,34.4 280.4,34.4 	"/>
	<polygon class="st2" points="307.7,29.6 302.6,20.4 305.8,20.4 309.2,27.3 312.9,20.4 316,20.4 310.5,29.5 310.5,34.4 307.7,34.4 	
		"/>
	<rect x="176" y="11.6" class="st1" width="2.1" height="31.6"/>
	<rect x="243" y="54.9" class="st1" width="1.2" height="1.1"/>
	<path class="st2" d="M201.3,56.1c1.2,0,2.3-0.5,2.3-1.6c0-1.8-2.8-1.7-2.8-2.6c0-0.4,0.3-0.6,0.9-0.6c0.6,0,0.9,0.1,1.3,0.2
		l0.3-0.8c-0.4-0.2-0.8-0.3-1.7-0.3c-1,0-1.9,0.5-1.9,1.5c0,1.9,2.8,1.6,2.8,2.7c0,0.5-0.5,0.7-1.2,0.7c-0.6,0-1-0.1-1.5-0.3
		l-0.3,0.8C199.9,55.9,200.4,56.1,201.3,56.1 M208.1,56.1c1.2,0,2.5-0.6,2.5-2.4v-3.2h-1.1v3.2c0,1.1-0.5,1.6-1.4,1.6
		c-0.9,0-1.4-0.4-1.4-1.4v-3.4h-1.1v3.4C205.6,55.6,206.9,56.1,208.1,56.1 M215.8,56.1c0.8,0,1.3-0.1,1.7-0.3l-0.2-0.8
		c-0.4,0.1-0.8,0.2-1.4,0.2c-1.2,0-2.1-0.7-2.1-2c0-1.3,0.9-1.9,2-1.9c0.7,0,1,0.1,1.4,0.2l0.3-0.8c-0.3-0.1-0.8-0.3-1.8-0.3
		c-2,0-3.1,1-3.1,2.9C212.6,55,213.7,56.1,215.8,56.1 M222.2,56.1c0.8,0,1.3-0.1,1.7-0.3l-0.2-0.8c-0.4,0.1-0.8,0.2-1.4,0.2
		c-1.2,0-2.1-0.7-2.1-2c0-1.3,0.9-1.9,2-1.9c0.7,0,1,0.1,1.4,0.2l0.3-0.8c-0.3-0.1-0.8-0.3-1.8-0.3c-2,0-3.1,1-3.1,2.9
		C219,55,220.1,56.1,222.2,56.1 M225.8,56h3.8v-0.8h-2.7v-1.5h2.3v-0.8h-2.3v-1.5h2.5v-0.8h-3.6V56z M233,56.1
		c1.2,0,2.3-0.5,2.3-1.6c0-1.8-2.8-1.7-2.8-2.6c0-0.4,0.3-0.6,0.9-0.6c0.6,0,0.9,0.1,1.3,0.2l0.3-0.8c-0.4-0.2-0.8-0.3-1.7-0.3
		c-1,0-1.9,0.5-1.9,1.5c0,1.9,2.8,1.6,2.8,2.7c0,0.5-0.5,0.7-1.2,0.7c-0.6,0-1-0.1-1.5-0.3l-0.3,0.8C231.6,55.9,232.1,56.1,233,56.1
		 M238.7,56.1c1.2,0,2.3-0.5,2.3-1.6c0-1.8-2.8-1.7-2.8-2.6c0-0.4,0.3-0.6,0.9-0.6c0.6,0,0.9,0.1,1.3,0.2l0.3-0.8
		c-0.4-0.2-0.8-0.3-1.7-0.3c-1,0-1.9,0.5-1.9,1.5c0,1.9,2.8,1.6,2.8,2.7c0,0.5-0.5,0.7-1.2,0.7c-0.6,0-1-0.1-1.5-0.3l-0.3,0.8
		C237.2,55.9,237.8,56.1,238.7,56.1"/>
	<rect x="193.9" y="54.9" class="st1" width="1.2" height="1.1"/>
	<path class="st2" d="M175.4,57.5c1.7-0.6,1.9-1.6,1.9-2.7v-4.4h-1.1v4.4c0,1-0.2,1.4-1.2,1.9L175.4,57.5z M182.3,56.1
		c2,0,3.1-1.1,3.1-2.9c0-1.6-0.9-2.9-2.9-2.9c-1.9,0-3.1,1.1-3.1,2.9C179.3,55,180.3,56.1,182.3,56.1 M182.3,55.2
		c-1.3,0-1.9-0.9-1.9-2c0-1.1,0.6-2,1.9-2c1.3,0,1.9,0.9,1.9,2C184.2,54.4,183.7,55.2,182.3,55.2 M187.4,56h2.1
		c1.6,0,2.2-0.7,2.2-1.7c0-0.9-0.8-1.2-1.1-1.3v0c0.2-0.1,0.7-0.4,0.7-1.1c0-1-0.7-1.5-2-1.5h-1.9V56z M188.5,55.1v-1.6h0.7
		c0.9,0,1.4,0.2,1.4,0.8c0,0.6-0.5,0.8-1.3,0.8H188.5z M188.5,52.8v-1.5h0.5c0.7,0,1.1,0.2,1.1,0.8c0,0.6-0.3,0.7-1,0.7H188.5z"/>
	<rect x="170.1" y="54.9" class="st1" width="1.2" height="1.1"/>
	<path class="st2" d="M112.5,56h3.8v-0.8h-2.7v-1.5h2.3v-0.8h-2.3v-1.5h2.5v-0.8h-3.6V56z M118.3,56h1.9c2,0,3.3-0.9,3.3-2.8
		c0-1.9-1.4-2.8-3.3-2.8h-1.9V56z M119.4,55.1v-3.9h0.7c1.5,0,2.2,0.7,2.2,2c0,1.2-0.7,1.9-2.1,1.9H119.4z M128,56.1
		c1.2,0,2.5-0.6,2.5-2.4v-3.2h-1.1v3.2c0,1.1-0.5,1.6-1.4,1.6c-0.9,0-1.4-0.4-1.4-1.4v-3.4h-1.1v3.4C125.5,55.6,126.8,56.1,128,56.1
		 M135.7,56.1c0.8,0,1.3-0.1,1.7-0.3l-0.2-0.8c-0.4,0.1-0.8,0.2-1.4,0.2c-1.2,0-2.1-0.7-2.1-2c0-1.3,0.9-1.9,2-1.9
		c0.7,0,1,0.1,1.4,0.2l0.3-0.8c-0.3-0.1-0.8-0.3-1.8-0.3c-2,0-3.1,1-3.1,2.9C132.5,55,133.6,56.1,135.7,56.1 M138.6,56h1.1l0.7-1.8
		h2.1l0.6,1.8h1.2l-2-5.6h-1.5L138.6,56z M140.8,53.4l0.8-2.3l0.7,2.3H140.8z M146.7,56h1.1v-4.7h1.9v-0.9h-4.9v0.9h1.9V56z
		 M151.4,56h1.1v-5.6h-1.1V56z M157.5,56.1c2,0,3.1-1.1,3.1-2.9c0-1.6-0.9-2.9-2.9-2.9c-1.9,0-3.1,1.1-3.1,2.9
		C154.5,55,155.5,56.1,157.5,56.1 M157.5,55.2c-1.3,0-1.9-0.9-1.9-2c0-1.1,0.6-2,1.9-2c1.3,0,1.9,0.9,1.9,2
		C159.4,54.3,158.9,55.2,157.5,55.2 M162.6,56h1.1v-3.5l0-0.7l2.5,4.2h1.4v-5.6h-1.1v3.6l0,0.7l-2.5-4.3h-1.4V56z"/>
</g>
</svg>
